<svg id="Capa_1" enable-background="new 0 0 512 512" height="512" viewBox="0 0 512 512" width="512" xmlns="http://www.w3.org/2000/svg"><path d="m161 279.302-32.21 46.268c-2.804 4.028-7.402 6.43-12.311 6.43h-81.479c-19.33 0-35-15.67-35-35 0-19.33 15.67-35 35-35h42.384l36.718-62.945c20.529-35.193 58.592-57.055 99.335-57.055h85.125c40.743 0 78.806 21.862 99.335 57.055l36.718 62.945h42.385c19.33 0 35 15.67 35 35 0 19.33-15.67 35-35 35h-81.479c-4.908 0-9.506-2.401-12.311-6.43l-32.21-46.268v136.34l-91.746 20c-1.071.239-2.163.358-3.254.358s-2.183-.119-3.254-.357l-91.746-20z" fill="#fabe8f"/><path d="m477 262h-42.385l-36.718-62.945c-20.529-35.193-58.591-57.055-99.334-57.055h-42.563v294c1.091 0 2.183-.119 3.254-.357l91.746-20v-136.34l32.21 46.268c2.804 4.028 7.402 6.43 12.311 6.43h81.479c19.33 0 35-15.67 35-35 0-19.331-15.67-35.001-35-35.001z" fill="#f5af78"/><path d="m313.029 512h-212.97c-38.08 0-69.059-30.979-69.059-69.059 0-20.771 9.213-40.238 25.277-53.407 16.063-13.168 36.957-18.387 57.326-14.311l208.834 41.767c22.344 4.469 38.563 24.252 38.563 47.039 0 26.451-21.52 47.971-47.971 47.971z" fill="#7de6ff"/><path d="m256 172c-47.42 0-86-38.58-86-86s38.58-86 86-86c47.421 0 86 38.58 86 86s-38.579 86-86 86z" fill="#ffd2af"/><path d="m411.941 512h-212.97c-26.451 0-47.971-21.52-47.971-47.971 0-22.788 16.218-42.57 38.563-47.039l208.835-41.767c20.367-4.076 41.263 1.143 57.325 14.311 16.064 13.17 25.277 32.635 25.277 53.407 0 38.079-30.979 69.059-69.059 69.059z" fill="#5acdfa"/><path d="m342 86c0-47.42-38.579-86-86-86v172c47.421 0 86-38.58 86-86z" fill="#fabe8f"/><path d="m455.724 389.535c-16.063-13.168-36.958-18.387-57.325-14.311l-142.399 28.479v108.297h155.941c38.08 0 69.059-30.98 69.059-69.059 0-20.772-9.213-40.237-25.276-53.406z" fill="#00beeb"/></svg>